<?xml version="1.0" standalone="no"?>
<!DOCTYPE svg PUBLIC "-//W3C//DTD SVG 20010904//EN"
 "http://www.w3.org/TR/2001/REC-SVG-20010904/DTD/svg10.dtd">
<svg version="1.0" xmlns="http://www.w3.org/2000/svg"
 width="500.000000pt" height="500.000000pt" viewBox="0 0 500.000000 500.000000"
 preserveAspectRatio="xMidYMid meet">

<g transform="translate(0.000000,500.000000) scale(0.100000,-0.100000)"
fill="#000000" stroke="none">
<path d="M2598 3633 c12 -2 32 -2 45 0 12 2 2 4 -23 4 -25 0 -35 -2 -22 -4z"/>
<path d="M2765 3605 c101 -23 215 -65 306 -110 78 -40 57 -36 -43 7 -358 155
-800 139 -1134 -40 -117 -63 -154 -85 -154 -94 0 -4 26 9 57 29 59 37 202 107
208 101 2 -2 -26 -19 -63 -38 -64 -32 -135 -77 -176 -110 -70 -56 -112 -94
-115 -104 -2 -6 17 8 43 32 61 56 199 145 289 187 319 147 647 157 966 29 47
-19 115 -52 152 -74 71 -42 85 -47 73 -28 -4 7 -3 8 5 4 6 -4 9 -11 6 -16 -3
-4 17 -24 44 -43 27 -20 82 -66 123 -103 43 -39 32 -27 -27 32 -101 99 -91
100 21 2 83 -73 204 -208 204 -228 0 -6 4 -10 8 -10 5 0 15 -12 23 -27 8 -16
17 -30 20 -33 11 -9 80 -150 73 -150 -4 0 -2 -6 4 -12 15 -19 53 -138 47 -148
-3 -5 -1 -11 3 -14 11 -6 31 -120 41 -236 5 -48 10 -70 11 -50 3 34 3 34 10
-10 5 -29 6 -14 3 40 -16 300 -159 627 -375 855 -97 103 -254 225 -222 173 4
-7 3 -8 -5 -4 -6 4 -9 11 -6 16 8 12 -97 73 -200 115 -91 38 -260 86 -299 84
-11 0 24 -11 79 -24z m405 -171 c0 -2 -9 0 -20 6 -11 6 -20 13 -20 16 0 2 9 0
20 -6 11 -6 20 -13 20 -16z"/>
<path d="M1709 3343 c-13 -16 -12 -17 4 -4 9 7 17 15 17 17 0 8 -8 3 -21 -13z"/>
<path d="M1666 3315 c-11 -8 -17 -17 -14 -20 2 -3 13 4 23 15 21 23 18 25 -9
5z"/>
<path d="M1564 3218 l-29 -33 33 29 c30 28 37 36 29 36 -2 0 -16 -15 -33 -32z"/>
<path d="M1569 3163 l-24 -28 28 24 c25 23 32 31 24 31 -2 0 -14 -12 -28 -27z"/>
<path d="M1486 3068 c3 -5 10 -6 15 -3 13 9 11 12 -6 12 -8 0 -12 -4 -9 -9z"/>
<path d="M1436 3012 c-3 -5 1 -9 9 -9 8 0 12 4 9 9 -3 4 -7 8 -9 8 -2 0 -6 -4
-9 -8z"/>
<path d="M1316 2895 c-9 -26 -7 -32 5 -12 6 10 9 21 6 23 -2 3 -7 -2 -11 -11z"/>
<path d="M1840 2891 c5 -11 10 -33 10 -48 0 -29 -51 -193 -129 -416 -22 -65
-41 -124 -41 -132 0 -29 38 -37 93 -19 104 33 257 96 257 105 0 13 -5 12 -93
-16 -96 -31 -127 -32 -127 -6 0 11 21 75 46 143 72 191 97 311 78 363 -8 19
-55 45 -84 45 -17 0 -19 -3 -10 -19z"/>
<path d="M1293 2845 c-3 -9 -3 -18 -1 -21 3 -3 8 4 11 16 6 23 -1 27 -10 5z"/>
<path d="M1270 2784 c-6 -16 -13 -35 -15 -41 -2 -7 -1 -13 3 -13 8 0 33 73 27
79 -3 2 -9 -9 -15 -25z"/>
<path d="M2292 2706 c-5 -12 -20 -59 -32 -103 -22 -83 -40 -103 -90 -103 -27
0 -30 10 -18 63 5 27 7 60 3 74 -5 23 -10 25 -40 20 -68 -11 -155 -91 -155
-143 0 -28 28 -64 50 -64 10 0 35 19 54 42 20 23 37 40 39 37 2 -2 8 -16 15
-31 13 -32 53 -38 89 -13 21 15 22 14 25 -17 2 -25 8 -33 23 -33 14 0 28 18
51 65 32 65 54 92 108 126 l29 18 -7 -82 c-7 -92 6 -142 44 -162 24 -13 69 0
91 26 10 12 6 14 -22 12 l-34 -3 3 81 c5 96 -13 150 -52 160 -32 8 -59 -1 -98
-34 l-31 -27 7 44 c10 64 -28 99 -52 47z m-202 -121 c0 -19 -68 -95 -86 -95
-21 0 3 56 38 85 34 29 48 32 48 10z"/>
<path d="M1245 2710 c-3 -5 -1 -10 4 -10 6 0 11 5 11 10 0 6 -2 10 -4 10 -3 0
-8 -4 -11 -10z"/>
<path d="M1236 2673 c-6 -14 -5 -15 5 -6 7 7 10 15 7 18 -3 3 -9 -2 -12 -12z"/>
<path d="M3015 2680 c-18 -8 -17 -9 8 -9 15 -1 30 -8 34 -16 3 -9 -11 -62 -31
-119 -39 -108 -39 -135 -2 -165 23 -19 30 -9 56 79 35 121 96 178 171 163 45
-9 34 18 -15 34 -36 13 -55 9 -128 -22 -14 -5 -18 -2 -18 12 0 20 -29 54 -46
52 -5 0 -18 -4 -29 -9z"/>
<path d="M2660 2661 c-42 -22 -84 -95 -75 -131 7 -30 39 -56 78 -64 31 -6 107
22 139 51 17 15 19 14 38 -10 31 -40 72 -44 126 -12 50 29 54 46 5 21 -37 -20
-75 -20 -90 -2 -9 11 -3 19 34 41 76 44 88 105 21 105 -43 0 -86 -34 -101 -81
-9 -26 -24 -40 -66 -61 -66 -34 -94 -35 -114 -5 -29 45 15 127 70 127 11 0 27
5 35 10 13 9 13 11 0 20 -23 15 -62 12 -100 -9z m290 -40 c0 -11 -48 -51 -61
-51 -17 0 -9 28 14 43 25 18 47 22 47 8z"/>
<path d="M1226 2633 c-6 -14 -5 -15 5 -6 7 7 10 15 7 18 -3 3 -9 -2 -12 -12z"/>
<path d="M1202 2425 c0 -16 2 -22 5 -12 2 9 2 23 0 30 -3 6 -5 -1 -5 -18z"/>
<path d="M1231 2414 c0 -11 3 -14 6 -6 3 7 2 16 -1 19 -3 4 -6 -2 -5 -13z"/>
<path d="M1197 2320 c12 -128 14 -145 18 -175 2 -16 10 -50 16 -75 6 -25 13
-52 14 -60 1 -8 7 -28 14 -44 6 -16 13 -38 16 -50 2 -11 4 -22 6 -23 1 -2 2
-6 3 -10 1 -5 9 -22 19 -39 9 -17 13 -34 10 -38 -4 -3 -2 -6 3 -6 5 0 18 -22
29 -50 11 -27 23 -50 28 -50 4 0 5 -4 2 -10 -3 -5 -2 -10 4 -10 6 0 13 -11 17
-25 3 -14 10 -25 15 -25 5 0 9 -6 9 -13 0 -7 9 -23 20 -35 11 -12 20 -24 20
-26 0 -11 107 -134 165 -190 102 -99 269 -205 409 -261 82 -32 247 -75 285
-74 14 0 -10 8 -54 18 -128 28 -365 116 -365 136 0 3 17 -3 38 -14 20 -10 76
-33 124 -49 254 -90 574 -94 837 -10 101 32 286 122 336 163 26 22 27 23 5 12
-14 -7 -45 -25 -69 -41 -42 -27 -166 -86 -179 -86 -4 0 20 15 53 33 112 60
209 132 307 226 54 52 97 96 95 98 -2 2 -42 -34 -88 -79 -97 -96 -103 -101
-195 -161 -372 -242 -825 -266 -1216 -65 -105 54 -102 53 -93 38 5 -9 4 -11
-4 -6 -6 4 -9 11 -6 15 2 5 -19 23 -48 42 -29 18 -95 74 -147 123 -94 89 -94
90 -20 13 41 -43 100 -97 130 -119 98 -74 92 -76 -15 -4 -85 57 -221 191 -287
283 -137 190 -205 388 -227 658 -5 62 -9 83 -11 55 l-2 -45 -14 60 -13 60 6
-65z"/>
<path d="M3793 2255 c0 -22 2 -30 4 -17 2 12 2 30 0 40 -3 9 -5 -1 -4 -23z"/>
<path d="M3761 2254 c0 -11 3 -14 6 -6 3 7 2 16 -1 19 -3 4 -6 -2 -5 -13z"/>
<path d="M1993 2100 c0 -36 2 -55 4 -43 2 12 11 27 18 33 16 13 18 10 29 -35
2 -11 4 -4 3 15 -2 30 -5 35 -24 33 -18 -2 -23 4 -26 30 -2 17 -4 3 -4 -33z"/>
<path d="M2675 2148 c-40 -23 -46 -57 -15 -88 34 -34 80 -20 95 27 4 17 -1 29
-19 48 -28 28 -33 29 -61 13z m59 -30 c16 -26 -4 -53 -40 -53 -23 0 -30 5 -32
23 -7 47 47 69 72 30z"/>
<path d="M2870 2100 c0 -33 4 -60 10 -60 6 0 10 27 10 60 0 33 -4 60 -10 60
-6 0 -10 -27 -10 -60z"/>
<path d="M1897 2137 c-7 -18 2 -31 31 -46 19 -10 21 -15 11 -27 -7 -9 -20 -12
-33 -8 -16 5 -18 3 -10 -6 7 -6 22 -10 35 -8 35 5 37 42 5 64 -33 21 -33 32 2
37 26 4 26 4 -4 6 -19 0 -34 -5 -37 -12z"/>
<path d="M2080 2089 c-9 -15 -8 -24 1 -35 27 -33 79 1 58 39 -14 23 -46 21
-59 -4z m47 -5 c8 -21 -13 -42 -28 -27 -13 13 -5 43 11 43 6 0 13 -7 17 -16z"/>
<path d="M2171 2056 c1 -31 4 -43 7 -31 5 13 16 20 32 20 20 0 26 6 28 28 4
28 3 29 -40 32 -27 2 -28 1 -27 -49z m48 30 c9 -10 8 -16 -4 -26 -19 -16 -41
1 -32 24 8 20 21 20 36 2z"/>
<path d="M2260 2059 c0 -27 5 -49 10 -49 6 0 10 9 10 19 0 14 5 18 18 14 10
-2 25 3 32 12 20 24 0 50 -39 52 -31 1 -31 1 -31 -48z m57 25 c8 -21 -13 -42
-28 -27 -13 13 -5 43 11 43 6 0 13 -7 17 -16z"/>
<path d="M2360 2076 c0 -20 5 -36 10 -36 6 0 10 13 10 29 0 17 -4 33 -10 36
-6 4 -10 -8 -10 -29z"/>
<path d="M2418 2103 c-12 -3 -18 -14 -18 -34 0 -37 18 -38 22 -1 4 33 22 32
26 -3 5 -37 24 -30 20 7 -3 33 -15 41 -50 31z"/>
<path d="M2500 2095 c-20 -24 -8 -50 23 -50 15 1 26 -4 24 -10 -2 -5 -14 -10
-26 -9 -11 0 -21 -3 -21 -8 0 -5 12 -8 28 -6 24 3 27 7 30 48 3 42 1 46 -21
48 -14 1 -30 -5 -37 -13z m48 -18 c4 -22 -27 -35 -38 -16 -10 15 7 42 24 36 6
-2 12 -11 14 -20z"/>
<path d="M2780 2073 c0 -40 17 -44 22 -5 4 36 21 34 29 -4 6 -28 7 -27 8 8 1
35 0 37 -29 35 -27 -2 -30 -6 -30 -34z"/>
<path d="M2917 2103 c-11 -10 -8 -63 3 -63 6 0 10 16 10 35 0 36 -2 40 -13 28z"/>
<path d="M2961 2071 c2 -29 3 -31 6 -9 6 40 31 43 42 5 l10 -32 -2 35 c-2 31
-5 35 -29 36 -26 1 -28 -2 -27 -35z"/>
<path d="M3050 2090 c-14 -27 2 -51 34 -49 15 1 17 2 4 6 -9 2 -19 11 -22 20
-7 18 9 41 21 29 4 -4 1 -12 -7 -17 -12 -8 -11 -9 5 -7 27 4 26 32 -2 36 -14
2 -26 -4 -33 -18z"/>
<path d="M3754 2015 c-3 -8 -4 -20 -2 -27 3 -7 7 -1 10 15 6 29 1 36 -8 12z"/>
<path d="M3741 1954 c0 -11 3 -14 6 -6 3 7 2 16 -1 19 -3 4 -6 -2 -5 -13z"/>
<path d="M3655 1839 c-4 -6 -5 -12 -2 -15 2 -3 7 2 10 11 7 17 1 20 -8 4z"/>
<path d="M3481 1573 c-25 -36 -26 -41 -6 -18 26 30 49 65 42 65 -2 0 -18 -21
-36 -47z"/>
<path d="M3420 1445 c-18 -19 -31 -37 -28 -40 3 -3 20 12 38 35 39 49 35 52
-10 5z"/>
<path d="M3310 1339 l-45 -41 42 32 c38 28 60 50 51 50 -2 0 -24 -18 -48 -41z"/>
</g>
</svg>
